# xmcd
#
# Track frame offsets:
# 150
# 15070
# 25850
# 45672
# 59307
# 73132
# 95092
# 116582
# 129130
# 141472
# 151955
# 165957
# 180705
# 195425
# 213207
# 230047
# 245695
# 257270
#
# Disc length: 3582 seconds
#
#
# Revision: 0
# Processed by: cddbd v1.5.1PL2 Copyright (c) Steve Scherf et al.
# Submitted via: FreeRIP 2.944 
#
DISCID=eb0dfc12
DTITLE=Various Artist - The Old Style Love Song 6
DYEAR=1900
DGENRE=Oldies
TTITLE0=i don't like to sleep alone
TTITLE1=all i have to do is dream
TTITLE2=don't cry joni
TTITLE3=daddy's home
TTITLE4=imagine
TTITLE5=bridge over troubled water
TTITLE6=killing me softly with his song
TTITLE7=ben
TTITLE8=love is blue
TTITLE9=oh! carol
TTITLE10=heart of gold
TTITLE11=morning has broken
TTITLE12=without you
TTITLE13=it's too late
TTITLE14=stoney
TTITLE15=new york new york
TTITLE16=sayonara
TTITLE17=rose rose i love you
EXTD=
EXTT0=
EXTT1=
EXTT2=
EXTT3=
EXTT4=
EXTT5=
EXTT6=
EXTT7=
EXTT8=
EXTT9=
EXTT10=
EXTT11=
EXTT12=
EXTT13=
EXTT14=
EXTT15=
EXTT16=
EXTT17=
PLAYORDER=
